<svg width="115" height="30" viewBox="0 0 115 30" fill="none" xmlns="http://www.w3.org/2000/svg">
<path d="M43.3896 24.1818V6H45.5914V22.2287H54.043V24.1818H43.3896ZM65.7618 18.6065V10.5455H67.8569V24.1818H65.7618V21.8736H65.6198C65.3002 22.566 64.8031 23.1549 64.1283 23.6403C63.4536 24.1197 62.6013 24.3594 61.5714 24.3594C60.7191 24.3594 59.9617 24.1729 59.2988 23.8001C58.6359 23.4213 58.1151 22.8531 57.7363 22.0955C57.3575 21.332 57.168 20.3702 57.168 19.2102V10.5455H59.2632V19.0682C59.2632 20.0625 59.5415 20.8556 60.0978 21.4474C60.6601 22.0393 61.3762 22.3352 62.2462 22.3352C62.7671 22.3352 63.2968 22.202 63.8354 21.9357C64.3799 21.6694 64.8355 21.261 65.2025 20.7106C65.5753 20.1601 65.7618 19.4588 65.7618 18.6065ZM73.7896 15.9787V24.1818H71.6945V10.5455H73.7186V12.6761H73.8961C74.2157 11.9837 74.701 11.4273 75.3521 11.0071C76.0031 10.581 76.8436 10.3679 77.8735 10.3679C78.7968 10.3679 79.6046 10.5573 80.2971 10.9361C80.9896 11.3089 81.5281 11.8771 81.9128 12.6406C82.2975 13.3982 82.4899 14.357 82.4899 15.517V24.1818H80.3948V15.6591C80.3948 14.5878 80.1166 13.7533 79.5602 13.1555C79.0039 12.5518 78.2404 12.25 77.2698 12.25C76.601 12.25 76.0031 12.395 75.4763 12.685C74.9555 12.975 74.5442 13.3982 74.2423 13.9545C73.9405 14.5109 73.7896 15.1856 73.7896 15.9787ZM92.0358 24.4659C90.7219 24.4659 89.5885 24.1759 88.6356 23.5959C87.6887 23.0099 86.9576 22.1932 86.4427 21.1456C85.9337 20.0921 85.6793 18.8669 85.6793 17.4702C85.6793 16.0734 85.9337 14.8423 86.4427 13.777C86.9576 12.7057 87.6738 11.8712 88.5911 11.2734C89.5144 10.6697 90.5917 10.3679 91.8228 10.3679C92.533 10.3679 93.2343 10.4863 93.9268 10.723C94.6193 10.9598 95.2495 11.3445 95.8177 11.8771C96.3859 12.4039 96.8386 13.1023 97.176 13.9723C97.5134 14.8423 97.6821 15.9136 97.6821 17.1861V18.0738H87.1708V16.2628H95.5515C95.5515 15.4934 95.3976 14.8068 95.0898 14.2031C94.788 13.5994 94.3558 13.123 93.7935 12.7738C93.2372 12.4246 92.5803 12.25 91.8228 12.25C90.9882 12.25 90.2661 12.4571 89.6565 12.8714C89.0528 13.2798 88.5882 13.8125 88.2627 14.4694C87.9371 15.1264 87.7745 15.8307 87.7745 16.5824V17.7898C87.7745 18.8196 87.952 19.6926 88.3071 20.4087C88.6682 21.1189 89.1682 21.6605 89.8074 22.0334C90.4466 22.4003 91.1895 22.5838 92.0358 22.5838C92.5863 22.5838 93.0834 22.5068 93.5273 22.353C93.9771 22.1932 94.3647 21.9564 94.6902 21.6427C95.0157 21.3231 95.2673 20.9266 95.4448 20.4531L97.469 21.0213C97.2559 21.7078 96.8979 22.3115 96.3949 22.8324C95.8918 23.3473 95.2702 23.7497 94.5304 24.0398C93.7906 24.3238 92.9591 24.4659 92.0358 24.4659ZM102.066 10.5455L105.333 16.1207L108.6 10.5455H111.014L106.611 17.3636L111.014 24.1818H108.6L105.333 18.8906L102.066 24.1818H99.6507L103.983 17.3636L99.6507 10.5455H102.066Z" fill="black"/>
<path d="M25.3104 2.97129C19.9811 0.791121 14.0429 2.40606 10.501 6.56562C10.1409 6.98682 9.80478 7.43856 9.49707 7.91431L10.0558 8.14128L13.0434 9.36558L13.1241 9.39831C14.1106 9.79987 15.2388 9.68202 16.1009 9.05787C18.0824 7.63061 20.734 7.22469 23.163 8.21766C26.91 9.75185 28.7039 14.0271 27.1719 17.7742C26.2903 19.9282 24.5029 21.4362 22.434 22.0363C22.2267 22.0974 22.015 22.1498 21.8012 22.1913C20.7471 22.4008 19.8545 23.0926 19.4464 24.0855L19.3962 24.2099L18.1719 27.2041L17.9406 27.7672C18.879 27.9483 19.8218 28.0225 20.7536 27.9941C25.7338 27.8523 30.4062 24.8363 32.4139 19.9216C35.1331 13.2785 31.9513 5.6905 25.306 2.97347L25.3104 2.97129Z" fill="black"/>
<path d="M25.3104 2.97129C19.9811 0.791121 14.0429 2.40606 10.501 6.56562C10.1409 6.98682 9.80478 7.43856 9.49707 7.91431L10.0558 8.14128C13.2529 3.30519 19.5141 1.24287 25.0856 3.52124C31.4275 6.11387 34.4632 13.3506 31.8705 19.6946C30.38 23.3414 27.3574 25.8903 23.8526 26.9073C22.0412 27.4354 20.1011 27.5555 18.1763 27.2019L17.945 27.765C18.8834 27.9461 19.8261 28.0203 20.758 27.9919C25.7381 27.8501 30.4105 24.8341 32.4183 19.9194C35.1375 13.2764 31.9556 5.68832 25.3104 2.97129Z" fill="black"/>
<path style="mix-blend-mode:multiply" opacity="0.7" d="M24.4664 6.68563C20.5294 4.76516 15.9967 5.87816 13.3429 8.99237C13.2404 9.1124 13.14 9.2368 13.0439 9.36555L13.1247 9.39829C14.1111 9.79984 15.2394 9.682 16.1014 9.05784C18.083 7.63059 20.7345 7.22467 23.1635 8.21764C26.9106 9.75183 28.7045 14.0271 27.1725 17.7742C26.2908 19.9281 24.5035 21.4361 22.4346 22.0363C22.2273 22.0974 22.0156 22.1498 21.8017 22.1912C20.7476 22.4007 19.8551 23.0925 19.447 24.0855L19.3968 24.2099C19.8158 24.2536 20.237 24.271 20.6516 24.2557C24.3769 24.151 27.8599 21.7853 29.1584 17.9749C30.649 13.5993 28.6194 8.71303 24.4642 6.68781L24.4664 6.68563Z" fill="black"/>
<path d="M22.2367 14.3784L14.0703 17.8047L7.18066 14.5355L10.6484 13.0821C13.6382 11.8272 17.0209 11.9058 19.9496 13.2959L22.2345 14.3806L22.2367 14.3784Z" fill="black"/>
<path d="M22.236 14.3784L14.0696 17.8047L11.5752 25.0108L15.043 23.5574C18.0328 22.3025 20.3482 19.8343 21.4089 16.7703L22.236 14.3806V14.3784Z" fill="black"/>
<path d="M10.7728 19.1882L6.35786 21.0389L2.63477 19.2712L4.88477 18.3262C6.26183 17.7479 7.82003 17.785 9.16872 18.4244L10.7728 19.186V19.1882Z" fill="black"/>
<path d="M10.7724 19.1885L6.35748 21.0391L5.00879 24.9346L7.25879 23.9896C8.63586 23.4113 9.70084 22.2765 10.1897 20.8645L10.7702 19.1863L10.7724 19.1885Z" fill="black"/>
</svg>
