<svg width="65" height="65" viewBox="0 0 65 65" fill="none" xmlns="http://www.w3.org/2000/svg">
<path d="M60.6256 32.5031C60.6256 36.6664 57.6058 40.5386 52.4971 43.3987C47.4046 46.2497 40.3355 48.0287 32.5 48.0287C24.6646 48.0287 17.5955 46.2497 12.503 43.3987C7.3943 40.5386 4.37451 36.6664 4.37451 32.5031C4.37451 28.3399 7.3943 24.4676 12.503 21.6076C17.5955 18.7566 24.6646 16.9775 32.5 16.9775C40.3355 16.9775 47.4046 18.7566 52.4971 21.6076C57.6058 24.4676 60.6256 28.3399 60.6256 32.5031Z" stroke="#FB5471"/>
<path d="M59.76 39.6936C58.7722 43.7269 54.9274 46.7079 49.2964 48.174C43.6836 49.6354 36.4096 49.5524 28.8151 47.5492C21.2205 45.546 14.7912 42.0143 10.532 37.949C6.25891 33.8704 4.25228 29.3459 5.24009 25.3126C6.2279 21.2793 10.0727 18.2983 15.7037 16.8322C21.3165 15.3708 28.5905 15.4537 36.185 17.457C43.7796 19.4602 50.2089 22.9919 54.4681 27.0572C58.7412 31.1358 60.7478 35.6603 59.76 39.6936Z" stroke="#FB5471"/>
<path d="M56.7149 47.3597C54.677 50.9372 50.1827 52.6774 44.3787 52.441C38.5951 52.2055 31.6354 50.0027 24.8886 45.8632C18.1418 41.7237 12.9275 36.4571 9.94096 31.3117C6.94383 26.1482 6.24678 21.2228 8.28474 17.6454C10.3227 14.068 14.817 12.3278 20.621 12.5642C26.4046 12.7997 33.3643 15.0025 40.1111 19.142C46.8579 23.2815 52.0722 28.548 55.0587 33.6934C58.0559 38.857 58.7529 43.7823 56.7149 47.3597Z" stroke="#FB5471"/>
<path d="M52.0488 53.5021C49.1741 56.3844 44.3994 56.8269 38.8604 54.9987C33.3428 53.1776 27.1946 49.1351 21.7474 43.2838C16.3002 37.4324 12.6191 30.9164 11.0555 25.131C9.48572 19.323 10.0764 14.386 12.9511 11.5038C15.8258 8.6215 20.6005 8.17898 26.1396 10.0072C31.6571 11.8283 37.8053 15.8707 43.2525 21.7221C48.6997 27.5734 52.3808 34.0895 53.9444 39.8749C55.5142 45.6829 54.9235 50.6198 52.0488 53.5021Z" stroke="#FB5471"/>
</svg>
