<svg width="119" height="120" viewBox="0 0 119 120" fill="none" xmlns="http://www.w3.org/2000/svg">
<path d="M55.908 112.872L55.3398 118.824L54.6255 118.756L55.1255 113.518L52.4595 113.263L52.5277 112.549L55.908 112.872Z" fill="black"/>
<path d="M49.2839 112.021L47.9727 117.855L44.3929 117.051L44.5503 116.351L47.4299 116.998L47.8027 115.339L45.444 114.809L45.6013 114.109L47.96 114.639L48.4265 112.564L45.5469 111.917L45.7042 111.217L49.2839 112.021Z" fill="black"/>
<path d="M36.5153 114.41L36.7626 113.736L38.6311 114.422L40.4446 109.482L41.1182 109.729L39.3047 114.669L41.1692 115.354L40.9219 116.027L36.5153 114.41Z" fill="black"/>
<path d="M34.7718 111.122L33.5477 113.004L32.9042 112.686L34.3428 110.91L34.7718 111.122Z" fill="black"/>
<path d="M30.8082 104.498C31.0799 104.67 31.3154 104.878 31.5146 105.122C31.7122 105.369 31.8557 105.632 31.9451 105.911C32.0321 106.189 32.0459 106.462 31.9865 106.731L31.2852 106.585C31.3225 106.42 31.3082 106.246 31.2424 106.062C31.1726 105.88 31.0663 105.705 30.9234 105.537C30.7805 105.368 30.614 105.224 30.424 105.104C30.2075 104.967 29.9846 104.874 29.7552 104.826C29.5219 104.78 29.3071 104.783 29.1109 104.838C28.9146 104.892 28.7624 105.005 28.6542 105.175C28.5429 105.351 28.5123 105.532 28.5624 105.719C28.611 105.908 28.7085 106.095 28.855 106.279C28.9999 106.465 29.1631 106.641 29.3447 106.807C29.6568 107.085 29.9176 107.365 30.1271 107.646C30.3327 107.928 30.4551 108.217 30.4943 108.511C30.531 108.804 30.4496 109.108 30.2499 109.423C30.0639 109.717 29.8173 109.92 29.5102 110.032C29.2008 110.142 28.8684 110.169 28.5132 110.113C28.158 110.056 27.8193 109.926 27.497 109.721C27.23 109.552 26.9982 109.346 26.8014 109.104C26.6007 108.862 26.4544 108.6 26.3627 108.32C26.2709 108.039 26.2553 107.758 26.316 107.476L27.0222 107.63C26.9834 107.798 26.9989 107.973 27.0687 108.155C27.1345 108.339 27.2396 108.513 27.3841 108.679C27.5246 108.846 27.691 108.99 27.8834 109.112C28.096 109.25 28.3177 109.342 28.5486 109.387C28.7795 109.432 28.9931 109.427 29.1894 109.373C29.3856 109.319 29.5371 109.208 29.6438 109.039C29.7718 108.837 29.8173 108.648 29.78 108.473C29.7389 108.299 29.6425 108.126 29.4908 107.956C29.3392 107.786 29.1609 107.607 28.9559 107.42C28.6639 107.157 28.4165 106.877 28.2137 106.58C28.0095 106.286 27.8856 105.986 27.8423 105.682C27.7965 105.377 27.8651 105.08 28.0481 104.791C28.2341 104.498 28.4818 104.296 28.7913 104.185C29.0984 104.073 29.4295 104.045 29.7847 104.102C30.1399 104.158 30.4811 104.29 30.8082 104.498Z" fill="black"/>
<path d="M21.2054 96.6238C21.4893 96.9117 21.6994 97.2384 21.8357 97.6039C21.97 97.9713 22.0317 98.3503 22.0208 98.7408C22.0059 99.1314 21.9186 99.5133 21.7589 99.8867C21.5971 100.258 21.3642 100.594 21.06 100.893C20.7558 101.193 20.4169 101.421 20.0432 101.578C19.6676 101.732 19.2855 101.813 18.8968 101.82C18.5041 101.827 18.126 101.76 17.7626 101.619C17.3971 101.479 17.0725 101.265 16.7886 100.977C16.4488 100.633 16.2161 100.236 16.0904 99.7885C15.9648 99.3406 15.9408 98.8904 16.0186 98.4379L16.7087 98.6513C16.6621 98.9771 16.6909 99.3025 16.7953 99.6275C16.8957 99.9524 17.0638 100.234 17.2997 100.474C17.5176 100.695 17.7661 100.858 18.0452 100.962C18.3223 101.065 18.6099 101.111 18.908 101.101C19.2061 101.092 19.4975 101.026 19.7823 100.905C20.0671 100.785 20.325 100.61 20.5562 100.382C20.7894 100.153 20.9685 99.8961 21.0933 99.6131C21.2162 99.328 21.2847 99.0366 21.299 98.7387C21.3112 98.4387 21.268 98.1495 21.1693 97.8709C21.0666 97.5923 20.9083 97.3445 20.6944 97.1275C20.4505 96.8801 20.1689 96.7059 19.8495 96.605C19.526 96.504 19.2031 96.4724 18.8806 96.5104L18.6802 95.8143C19.1338 95.743 19.5836 95.7735 20.0297 95.9055C20.4737 96.0396 20.8656 96.279 21.2054 96.6238Z" fill="black"/>
<path d="M16.2906 90.7114C16.5281 91.0386 16.687 91.393 16.7671 91.7747C16.8449 92.1581 16.8481 92.5429 16.7766 92.9291C16.7052 93.3153 16.5637 93.6802 16.3522 94.0238C16.1384 94.3691 15.8587 94.6672 15.5131 94.9182C15.1675 95.1692 14.7986 95.342 14.4064 95.4368C14.0119 95.5332 13.62 95.5556 13.2306 95.5041C12.8412 95.4525 12.4775 95.3295 12.1393 95.1352C11.7988 94.9426 11.5098 94.6827 11.2722 94.3555C11.033 94.026 10.8744 93.6696 10.7966 93.2862C10.7165 92.9045 10.7122 92.5205 10.7836 92.1343C10.8551 91.7481 10.9986 91.3835 11.214 91.0405C11.4255 90.6969 11.7041 90.3997 12.0497 90.1487C12.3953 89.8977 12.7654 89.724 13.1598 89.6276C13.5504 89.5305 13.9403 89.5078 14.3297 89.5594C14.719 89.6109 15.0839 89.733 15.4244 89.9257C15.7626 90.12 16.0513 90.3819 16.2906 90.7114ZM15.7099 91.133C15.5275 90.8819 15.307 90.6848 15.0484 90.5418C14.7881 90.3966 14.5098 90.3066 14.2136 90.2718C13.9134 90.2364 13.6146 90.2563 13.3173 90.3314C13.016 90.406 12.734 90.5386 12.4713 90.7293C12.2086 90.9201 11.9953 91.1472 11.8311 91.4106C11.6647 91.6757 11.5542 91.9548 11.4995 92.2479C11.4409 92.5403 11.4404 92.8328 11.498 93.1253C11.5539 93.4155 11.6721 93.685 11.8528 93.9339C12.0352 94.185 12.2566 94.3832 12.5169 94.5285C12.7756 94.6715 13.055 94.7606 13.3552 94.796C13.6514 94.8308 13.9501 94.8109 14.2514 94.7364C14.5488 94.6612 14.8288 94.5283 15.0914 94.3376C15.3564 94.1451 15.571 93.9172 15.7351 93.6538C15.8992 93.3903 16.0106 93.1124 16.0692 92.8199C16.1261 92.5252 16.1267 92.2327 16.0708 91.9425C16.0109 91.6517 15.8906 91.3819 15.7099 91.133Z" fill="black"/>
<path d="M13.2277 86.2048L7.91797 88.9551L7.56043 88.2648L10.344 83.4606L6.18724 85.6137L5.85721 84.9766L11.167 82.2263L11.5225 82.9127L8.74091 87.7207L12.8977 85.5676L13.2277 86.2048Z" fill="black"/>
<path d="M2.77001 76.9496L3.44711 76.712L4.10613 78.5901L9.07152 76.8478L9.3091 77.5249L4.34371 79.2672L5.00132 81.1413L4.32422 81.3789L2.77001 76.9496Z" fill="black"/>
<path d="M1.48461 71.5906L1.31489 70.7403L6.75343 67.4379L6.90225 68.1834L5.79125 68.8582L6.34053 71.6101L7.6246 71.8024L7.77425 72.5522L1.48461 71.5906ZM5.58501 71.4909L5.13939 69.2583L2.30072 70.9878L5.58501 71.4909Z" fill="black"/>
<path d="M6.44794 62.0143C6.46884 62.4181 6.40886 62.8018 6.26801 63.1655C6.12432 63.5294 5.9187 63.8537 5.65116 64.1384C5.38062 64.4204 5.06165 64.6479 4.69422 64.8209C4.32666 64.9911 3.9296 65.0872 3.50304 65.1093C3.07648 65.1313 2.67162 65.0767 2.28845 64.9454C1.90514 64.8113 1.5658 64.6179 1.27044 64.3651C0.972085 64.1097 0.734086 63.8084 0.556442 63.4612C0.375953 63.1141 0.275259 62.7386 0.254359 62.3348C0.229338 61.8514 0.31863 61.4006 0.522236 60.9823C0.725842 60.564 1.00699 60.2116 1.36568 59.925L1.73982 60.5429C1.4885 60.7555 1.29394 61.0179 1.15612 61.3301C1.01532 61.6396 0.953605 61.9622 0.970972 62.2977C0.987015 62.6077 1.06459 62.8945 1.20369 63.1582C1.34265 63.419 1.52684 63.6447 1.75625 63.8353C1.98567 64.0259 2.24693 64.1706 2.54003 64.2695C2.83313 64.3684 3.14177 64.4094 3.46595 64.3926C3.79298 64.3757 4.09715 64.3029 4.37848 64.1743C4.65966 64.0429 4.90451 63.8705 5.11302 63.6573C5.32139 63.4412 5.48122 63.1963 5.5925 62.9225C5.7008 62.646 5.74708 62.3556 5.73133 62.0514C5.71337 61.7044 5.61854 61.3871 5.44683 61.0995C5.27213 60.8091 5.05166 60.5711 4.78542 60.3853L5.09804 59.7318C5.4844 59.9798 5.80042 60.3014 6.04612 60.6964C6.28898 61.0915 6.42292 61.5308 6.44794 62.0143Z" fill="black"/>
<path d="M0.78322 52.0333L1.49797 52.0969L1.32156 54.0795L6.56305 54.5459L6.49945 55.2606L1.25796 54.7943L1.08194 56.7726L0.367188 56.709L0.78322 52.0333Z" fill="black"/>
<path d="M9.81922 40.8906L4.25391 38.7031L4.5164 38.0353L10.0817 40.2227L9.81922 40.8906Z" fill="black"/>
<path d="M16.3071 28.8477L11.5664 25.2031L12.0038 24.6342L16.1756 27.8415L17.8079 25.7183L18.3767 26.1556L16.3071 28.8477Z" fill="black"/>
<path d="M20.5541 23.6877L16.3086 19.4766L18.8924 16.8717L19.4019 17.377L17.3234 19.4724L18.5303 20.6696L20.2328 18.9532L20.7423 19.4586L19.0398 21.1749L20.5499 22.6729L22.6284 20.5775L23.1379 21.0828L20.5541 23.6877Z" fill="black"/>
<path d="M25.3136 11.6034L25.7529 12.1708L24.1789 13.3891L27.3997 17.5504L26.8323 17.9897L23.6114 13.8283L22.0408 15.044L21.6016 14.4766L25.3136 11.6034Z" fill="black"/>
<path d="M29.0249 11.8729L28.0809 9.83571L28.6919 9.45934L29.4322 11.622L29.0249 11.8729Z" fill="black"/>
<path d="M36.7443 12.035C36.454 12.1737 36.1524 12.2625 35.8397 12.3014C35.5257 12.3377 35.2267 12.3196 34.9427 12.247C34.6613 12.1731 34.4224 12.0395 34.2259 11.8462L34.7224 11.3298C34.8425 11.4491 34.9977 11.5296 35.188 11.5713C35.3797 11.6091 35.5847 11.6122 35.803 11.5805C36.0214 11.5488 36.2321 11.4844 36.4351 11.3875C36.6663 11.277 36.8631 11.1373 37.0253 10.9683C37.1889 10.7955 37.2999 10.6115 37.3582 10.4164C37.4165 10.2213 37.402 10.0326 37.3149 9.85015C37.2253 9.66258 37.0881 9.54037 36.9031 9.48354C36.717 9.42414 36.5071 9.40761 36.2736 9.43396C36.0388 9.45774 35.803 9.50251 35.5662 9.56828C35.1642 9.68457 34.7884 9.75674 34.4389 9.78482C34.0908 9.8091 33.7815 9.75957 33.5112 9.63624C33.2434 9.51168 33.0292 9.28109 32.8684 8.94449C32.7187 8.63102 32.6779 8.31442 32.7461 7.99469C32.8168 7.67373 32.9706 7.37784 33.2073 7.107C33.444 6.83617 33.7345 6.61853 34.0788 6.45408C34.364 6.31786 34.6617 6.2309 34.9719 6.1932C35.2834 6.1517 35.5824 6.16665 35.869 6.23806C36.1555 6.30947 36.4021 6.44574 36.6086 6.64689L36.1025 7.16313C35.9812 7.04121 35.8247 6.96133 35.6331 6.92348C35.4428 6.88183 35.2391 6.87815 35.0219 6.91244C34.8061 6.94293 34.5954 7.00727 34.3899 7.10544C34.16 7.2121 33.9645 7.35122 33.8035 7.5228C33.6424 7.69438 33.5328 7.87771 33.4745 8.0728C33.4162 8.26789 33.43 8.45537 33.5159 8.63523C33.619 8.85107 33.7547 8.9898 33.923 9.05143C34.0926 9.10926 34.2898 9.11919 34.5147 9.08122C34.7395 9.04325 34.9857 8.9872 35.2532 8.91307C35.6309 8.80526 35.9995 8.74442 36.3589 8.73053C36.7171 8.71408 37.0364 8.76824 37.3169 8.89304C37.6 9.0166 37.8151 9.23255 37.9624 9.54089C38.1121 9.85436 38.1516 10.1716 38.0809 10.4925C38.0127 10.8123 37.8602 11.1075 37.6235 11.3784C37.3868 11.6492 37.0938 11.8681 36.7443 12.035Z" fill="black"/>
<path d="M48.5187 8.0838C48.1239 8.17124 47.7355 8.17559 47.3535 8.09686C46.9709 8.01536 46.6171 7.86624 46.292 7.64949C45.9691 7.42936 45.692 7.15242 45.4606 6.81869C45.2319 6.48434 45.0715 6.10866 44.9791 5.69164C44.8867 5.27462 44.8736 4.8663 44.9397 4.46669C45.0085 4.06646 45.1431 3.69979 45.3435 3.36668C45.5461 3.03018 45.8039 2.7456 46.1169 2.51294C46.4293 2.27751 46.7829 2.11608 47.1777 2.02865C47.6503 1.92398 48.1097 1.93744 48.5559 2.06902C49.0021 2.20061 49.3962 2.41956 49.7382 2.72588L49.1908 3.19711C48.9395 2.98444 48.6485 2.83598 48.3178 2.75173C47.9892 2.66409 47.6609 2.65659 47.3329 2.72925C47.0298 2.79636 46.7598 2.92033 46.5228 3.10114C46.2885 3.28135 46.0964 3.50034 45.9464 3.75813C45.7965 4.01591 45.697 4.29752 45.6479 4.60294C45.5989 4.90836 45.6095 5.21954 45.6797 5.53648C45.7505 5.8562 45.8726 6.14414 46.046 6.4003C46.2222 6.65585 46.4327 6.86881 46.6775 7.03916C46.925 7.2089 47.193 7.326 47.4815 7.39045C47.772 7.4515 48.0661 7.44909 48.3636 7.38321C48.7027 7.30809 49 7.16206 49.2552 6.94512C49.5127 6.72478 49.711 6.46796 49.8502 6.17465L50.5463 6.37482C50.3657 6.7969 50.1009 7.16177 49.752 7.46945C49.4024 7.77435 48.9913 7.97913 48.5187 8.0838Z" fill="black"/>
<path d="M56.1379 7.06215C55.7345 7.08955 55.3499 7.03576 54.9839 6.90078C54.6178 6.76296 54.2902 6.56117 54.001 6.2954C53.7118 6.02963 53.4779 5.71588 53.2992 5.35413C53.1203 4.98954 53.0164 4.59417 52.9874 4.16803C52.9585 3.74188 53.0081 3.33752 53.1362 2.95493C53.2642 2.56951 53.4535 2.22558 53.7041 1.92316C53.9547 1.62073 54.2521 1.37792 54.5964 1.19471C54.9406 1.00866 55.3143 0.901931 55.7177 0.874535C56.124 0.846946 56.5102 0.902061 56.8763 1.03988C57.2422 1.17486 57.5698 1.37523 57.859 1.641C58.1482 1.90677 58.3808 2.22204 58.5568 2.58682C58.7355 2.94857 58.8393 3.34252 58.8682 3.76866C58.8972 4.19481 58.8477 4.60059 58.7197 4.98602C58.5944 5.36841 58.4065 5.71082 58.1559 6.01324C57.9053 6.31567 57.6079 6.5599 57.2638 6.74596C56.9195 6.92917 56.5442 7.03457 56.1379 7.06215ZM56.0893 6.34623C56.399 6.3252 56.6831 6.24312 56.9417 6.09998C57.2031 5.95665 57.4272 5.76876 57.614 5.53631C57.8035 5.30082 57.9455 5.03717 58.0398 4.74536C58.1368 4.45051 58.1743 4.14115 58.1523 3.81728C58.1303 3.49341 58.0513 3.19196 57.9154 2.91293C57.7792 2.63107 57.6015 2.38912 57.3823 2.1871C57.1658 1.98204 56.9183 1.82618 56.6399 1.7195C56.3644 1.61264 56.0732 1.56962 55.7664 1.59046C55.4567 1.61149 55.1712 1.69367 54.9098 1.837C54.6512 1.98014 54.4272 2.16945 54.2377 2.40494C54.0508 2.63739 53.9089 2.90104 53.8119 3.19588C53.7175 3.4877 53.6814 3.79554 53.7034 4.11941C53.7256 4.44612 53.8046 4.74899 53.9406 5.02802C54.0766 5.30704 54.2528 5.54909 54.4694 5.75414C54.6888 5.959 54.9363 6.11487 55.2118 6.22174C55.49 6.32557 55.7825 6.36707 56.0893 6.34623Z" fill="black"/>
<path d="M61.5863 6.8599L62.0781 0.900391L62.8529 0.964324L65.4434 5.87531L65.8284 1.20987L66.5435 1.26889L66.0517 7.22839L65.2812 7.16481L62.6865 2.25347L62.3015 6.91891L61.5863 6.8599Z" fill="black"/>
<path d="M74.9804 2.91999L74.8219 3.61983L72.8807 3.18004L71.718 8.31218L71.0181 8.15363L72.1808 3.02149L70.2438 2.58265L70.4023 1.88281L74.9804 2.91999Z" fill="black"/>
<path d="M80.2002 4.68068L81.0107 4.98876L80.9182 11.3508L80.2075 11.0807L80.2263 9.78096L77.6032 8.78388L76.758 9.76943L76.0433 9.49777L80.2002 4.68068ZM78.1057 8.20722L80.2338 9.01612L80.2771 5.69236L78.1057 8.20722Z" fill="black"/>
<path d="M85.6759 13.9729C85.3227 13.776 85.0295 13.5213 84.7963 13.2087C84.5644 12.8936 84.399 12.5471 84.2999 12.1691C84.2048 11.7901 84.1816 11.399 84.2303 10.9958C84.2815 10.594 84.4111 10.2066 84.619 9.83352C84.827 9.46045 85.0884 9.1465 85.4032 8.89168C85.7206 8.63824 86.0648 8.45357 86.4358 8.33767C86.8107 8.22067 87.1925 8.17918 87.581 8.21321C87.9709 8.24475 88.3425 8.35896 88.6957 8.55584C89.1185 8.79154 89.453 9.10677 89.6991 9.50152C89.9452 9.89627 90.0944 10.3217 90.1465 10.7779L89.4243 10.7665C89.3777 10.4406 89.2588 10.1363 89.0676 9.85365C88.8802 9.56989 88.6398 9.34621 88.3463 9.18261C88.0752 9.03148 87.791 8.94478 87.4937 8.9225C87.1989 8.90161 86.9098 8.93769 86.6265 9.03077C86.3431 9.12384 86.0817 9.26825 85.8422 9.46399C85.6026 9.65974 85.4039 9.89938 85.2458 10.1829C85.0864 10.4689 84.9864 10.7653 84.9458 11.0719C84.9078 11.38 84.9236 11.679 84.9935 11.9689C85.0658 12.2603 85.1883 12.5258 85.3611 12.7656C85.5378 13.0043 85.7592 13.1978 86.0253 13.3461C86.3287 13.5153 86.6479 13.6035 86.9828 13.6109C87.3216 13.6172 87.6405 13.557 87.9394 13.4302L88.3268 14.0423C87.9114 14.2378 87.4711 14.3346 87.0059 14.3328C86.542 14.3286 86.0987 14.2086 85.6759 13.9729Z" fill="black"/>
<path d="M97.1382 14.4816L96.7045 15.0533L95.1188 13.8503L91.9383 18.0426L91.3666 17.6089L94.5471 13.4166L92.9647 12.2162L93.3984 11.6445L97.1382 14.4816Z" fill="black"/>
<path d="M101.779 28.056L106.59 24.5039L107.016 25.0812L102.206 28.6332L101.779 28.056Z" fill="black"/>
<path d="M108.53 39.9542L114.137 37.875L114.386 38.5478L109.452 40.3775L110.384 42.8885L109.711 43.138L108.53 39.9542Z" fill="black"/>
<path d="M110.649 46.2902L116.473 44.9316L117.306 48.5047L116.607 48.6677L115.937 45.7935L114.281 46.1797L114.831 48.534L114.132 48.6971L113.583 46.3427L111.511 46.826L112.182 49.7003L111.483 49.8633L110.649 46.2902Z" fill="black"/>
<path d="M118.36 56.7456L117.646 56.8161L117.45 54.8354L112.213 55.3525L112.143 54.6384L117.38 54.1213L117.184 52.1447L117.898 52.0742L118.36 56.7456Z" fill="black"/>
<path d="M116.157 59.7456L118.385 60.0285L118.379 60.746L116.153 60.2239L116.157 59.7456Z" fill="black"/>
<path d="M111.918 66.1996C111.954 65.8799 112.039 65.5773 112.173 65.2916C112.309 65.0063 112.483 64.7627 112.695 64.5607C112.908 64.3616 113.148 64.2302 113.416 64.1665L113.589 64.8615C113.425 64.8998 113.274 64.9885 113.137 65.1276C113.004 65.2698 112.892 65.4419 112.803 65.6437C112.714 65.8455 112.656 66.0582 112.63 66.2817C112.601 66.5363 112.615 66.7772 112.672 67.0045C112.731 67.2349 112.828 67.4266 112.963 67.5797C113.097 67.7327 113.264 67.8208 113.465 67.8439C113.672 67.8677 113.848 67.8164 113.995 67.6899C114.144 67.5638 114.269 67.3948 114.371 67.183C114.476 66.9714 114.563 66.7479 114.633 66.5123C114.748 66.11 114.887 65.7533 115.049 65.4423C115.213 65.1345 115.42 64.8989 115.668 64.7354C115.916 64.5748 116.225 64.5158 116.595 64.5585C116.94 64.5982 117.23 64.7319 117.465 64.9596C117.699 65.1901 117.868 65.4776 117.972 65.822C118.075 66.1664 118.105 66.5282 118.062 66.9072C118.026 67.2212 117.941 67.5196 117.808 67.8024C117.678 68.0884 117.506 68.3337 117.293 68.5385C117.081 68.7433 116.834 68.8798 116.554 68.9478L116.386 68.2448C116.553 68.2068 116.704 68.1167 116.838 67.9745C116.975 67.8354 117.086 67.6648 117.172 67.4626C117.261 67.2636 117.319 67.0509 117.345 66.8246C117.377 66.5732 117.363 66.3337 117.303 66.1061C117.243 65.8785 117.146 65.6882 117.012 65.5351C116.877 65.3821 116.711 65.2941 116.513 65.2713C116.276 65.244 116.086 65.2852 115.944 65.395C115.805 65.508 115.692 65.6698 115.605 65.8804C115.517 66.0911 115.434 66.3294 115.355 66.5954C115.245 66.9726 115.101 67.3172 114.922 67.629C114.745 67.9412 114.53 68.183 114.275 68.3542C114.02 68.5284 113.723 68.5959 113.383 68.5568C113.038 68.517 112.748 68.3819 112.514 68.1514C112.279 67.9238 112.11 67.6377 112.007 67.2933C111.903 66.9488 111.873 66.5843 111.918 66.1996Z" fill="black"/>
<path d="M109.007 78.2723C109.143 77.8914 109.346 77.5601 109.616 77.2784C109.888 76.9976 110.202 76.7771 110.559 76.6169C110.917 76.4603 111.299 76.3727 111.704 76.354C112.109 76.338 112.513 76.4017 112.915 76.5451C113.317 76.6884 113.67 76.8943 113.974 77.1626C114.276 77.4336 114.515 77.7425 114.691 78.0893C114.868 78.4397 114.972 78.8093 115.003 79.1981C115.036 79.5879 114.985 79.9732 114.85 80.3541C114.687 80.8101 114.432 81.1921 114.083 81.5001C113.734 81.8082 113.339 82.0257 112.898 82.1526L112.79 81.4384C113.104 81.3386 113.384 81.171 113.631 80.9356C113.88 80.7039 114.061 80.4297 114.174 80.1132C114.278 79.8208 114.316 79.5262 114.289 79.2293C114.261 78.9352 114.177 78.656 114.039 78.392C113.9 78.128 113.714 77.894 113.482 77.6902C113.249 77.4864 112.98 77.33 112.674 77.221C112.366 77.1111 112.057 77.0615 111.748 77.0723C111.438 77.0857 111.145 77.1508 110.871 77.2677C110.596 77.3872 110.354 77.552 110.146 77.7621C109.94 77.9758 109.786 78.2262 109.683 78.5132C109.567 78.8404 109.533 79.1698 109.581 79.5013C109.631 79.8365 109.743 80.141 109.917 80.4148L109.378 80.8981C109.116 80.5208 108.948 80.1026 108.873 79.6435C108.8 79.1854 108.845 78.7283 109.007 78.2723Z" fill="black"/>
<path d="M105.821 85.2683C106.013 84.912 106.263 84.6147 106.571 84.3765C106.883 84.1396 107.228 83.9693 107.606 83.8655C107.985 83.7618 108.375 83.7303 108.777 83.7712C109.181 83.8134 109.571 83.9355 109.947 84.1374C110.324 84.3394 110.64 84.5963 110.896 84.9081C111.154 85.2213 111.345 85.5644 111.468 85.9374C111.591 86.3104 111.639 86.6914 111.611 87.0805C111.586 87.4709 111.477 87.8442 111.286 88.2005C111.094 88.5593 110.842 88.8572 110.531 89.0941C110.222 89.3323 109.878 89.5033 109.499 89.6071C109.12 89.7108 108.73 89.7403 108.327 89.6956C107.926 89.6547 107.537 89.5333 107.16 89.3314C106.784 89.1294 106.467 88.8719 106.208 88.5587C105.951 88.2493 105.761 87.9082 105.638 87.5352C105.515 87.1622 105.466 86.7805 105.491 86.3901C105.519 86.0011 105.629 85.6271 105.821 85.2683ZM106.454 85.6076C106.307 85.8811 106.225 86.1654 106.209 86.4605C106.192 86.7581 106.232 87.0478 106.33 87.3296C106.428 87.6153 106.576 87.8756 106.773 88.1106C106.972 88.3494 107.214 88.5456 107.5 88.6991C107.786 88.8526 108.083 88.9458 108.392 88.9789C108.703 89.0134 109.002 88.9914 109.29 88.9131C109.579 88.8386 109.842 88.7118 110.08 88.5327C110.317 88.356 110.509 88.1322 110.654 87.8612C110.801 87.5877 110.883 87.3022 110.9 87.0046C110.916 86.7095 110.875 86.4191 110.776 86.1334C110.679 85.8516 110.531 85.5913 110.333 85.3524C110.136 85.1174 109.894 84.9232 109.608 84.7697C109.319 84.6149 109.021 84.521 108.712 84.4879C108.404 84.4548 108.105 84.4755 107.816 84.5499C107.526 84.6269 107.262 84.7538 107.025 84.9304C106.79 85.1109 106.599 85.3366 106.454 85.6076Z" fill="black"/>
<path d="M103.1 89.9907L107.887 93.5742L107.421 94.1965L101.884 93.7813L105.632 96.5866L105.202 97.1611L100.415 93.5776L100.878 92.9587L106.417 93.3705L102.67 90.5651L103.1 89.9907Z" fill="black"/>
<path d="M99.3175 103.432L98.8089 102.926L100.213 101.516L96.4833 97.8034L96.9895 97.2948L100.719 101.007L102.12 99.5993L102.629 100.105L99.3175 103.432Z" fill="black"/>
<path d="M95.0509 106.918L94.3592 107.441L89.0189 103.982L89.6254 103.524L90.7164 104.23L92.955 102.538L92.5693 101.298L93.1792 100.837L95.0509 106.918ZM93.1765 103.27L91.3604 104.643L94.1529 106.446L93.1765 103.27Z" fill="black"/>
<path d="M84.2679 106.622C84.6223 106.427 84.9939 106.314 85.3827 106.283C85.7728 106.254 86.1543 106.298 86.5271 106.415C86.8987 106.536 87.2424 106.724 87.558 106.979C87.8712 107.236 88.1305 107.552 88.336 107.926C88.5416 108.301 88.6686 108.689 88.7172 109.091C88.7632 109.494 88.7368 109.884 88.6378 110.26C88.5376 110.64 88.3699 110.985 88.1346 111.296C87.9007 111.61 87.6065 111.864 87.252 112.059C86.8277 112.291 86.3829 112.407 85.9177 112.406C85.4525 112.405 85.0129 112.305 84.5987 112.107L84.9922 111.501C85.293 111.635 85.6139 111.696 85.955 111.684C86.295 111.676 86.6122 111.591 86.9068 111.429C87.1789 111.28 87.4033 111.085 87.5802 110.845C87.7545 110.607 87.8776 110.343 87.9493 110.053C88.021 109.764 88.0376 109.466 87.9991 109.159C87.9606 108.852 87.8632 108.556 87.707 108.271C87.5494 107.984 87.3515 107.742 87.1133 107.545C86.8726 107.349 86.6108 107.204 86.3281 107.109C86.0429 107.015 85.7528 106.978 85.4579 106.997C85.1618 107.02 84.8802 107.104 84.6132 107.251C84.3086 107.418 84.0642 107.641 83.88 107.921C83.6946 108.205 83.5762 108.507 83.5248 108.828L82.8004 108.831C82.8556 108.375 83.0075 107.95 83.2562 107.557C83.5063 107.166 83.8435 106.855 84.2679 106.622Z" fill="black"/>
<path d="M77.75 116.063L77.4961 115.392L79.3579 114.687L77.4966 109.765L78.1678 109.512L80.0291 114.434L81.8868 113.731L82.1406 114.402L77.75 116.063Z" fill="black"/>
<path d="M68.0347 113.739L68.3477 119.711L67.6311 119.748L67.3181 113.777L68.0347 113.739Z" fill="black"/>
</svg>
