<svg width="40" height="40" viewBox="0 0 40 40" fill="none" xmlns="http://www.w3.org/2000/svg">
<path d="M36.5625 14.4609C36.5625 14.4609 36.5547 14.4609 36.5484 14.45L20.2984 5.70001C20.2072 5.65078 20.1052 5.625 20.0016 5.625C19.8979 5.625 19.7959 5.65078 19.7047 5.70001L3.45469 14.45L3.4375 14.4625C3.34304 14.517 3.26449 14.5953 3.20967 14.6896C3.15485 14.7839 3.12566 14.8909 3.125 15V25C3.12539 25.1093 3.15445 25.2167 3.20928 25.3113C3.26412 25.4059 3.34281 25.4844 3.4375 25.5391C3.44189 25.5431 3.44659 25.5467 3.45156 25.55L19.7016 34.3C19.7928 34.3492 19.8948 34.375 19.9984 34.375C20.1021 34.375 20.2041 34.3492 20.2953 34.3L36.5453 25.55C36.5502 25.5472 36.5544 25.5435 36.5578 25.5391C36.6525 25.4844 36.7312 25.4059 36.786 25.3113C36.8409 25.2167 36.8699 25.1093 36.8703 25V15C36.8704 14.8911 36.8421 14.7841 36.7881 14.6896C36.7341 14.595 36.6563 14.5162 36.5625 14.4609ZM35.625 23.9531L28.2812 20L35.625 16.0469V23.9531ZM26.9641 19.2906L20.625 15.8766V7.29688L34.9312 15L26.9641 19.2906ZM20 23.0406L14.3547 20L20 16.9594L25.6453 20L20 23.0406ZM19.375 7.29688V15.8766L13.0359 19.2906L5.06875 15L19.375 7.29688ZM4.375 16.0469L11.7188 20L4.375 23.9531V16.0469ZM13.0359 20.7094L19.375 24.1234V32.7031L5.06875 25L13.0359 20.7094ZM20.625 32.7031V24.1234L26.9641 20.7094L34.9328 25L20.625 32.7031Z" fill="#5538CE"/>
</svg>
