<svg width="30" height="30" viewBox="0 0 30 30" fill="none" xmlns="http://www.w3.org/2000/svg">
<path d="M15 3.75C13.5226 3.75 12.0597 4.04099 10.6948 4.60636C9.3299 5.17172 8.08971 6.00039 7.04505 7.04505C6.00039 8.08971 5.17172 9.3299 4.60636 10.6948C4.04099 12.0597 3.75 13.5226 3.75 15C3.75 16.4774 4.04099 17.9403 4.60636 19.3052C5.17172 20.6701 6.00039 21.9103 7.04505 22.955C8.08971 23.9996 9.3299 24.8283 10.6948 25.3936C12.0597 25.959 13.5226 26.25 15 26.25C17.9837 26.25 20.8452 25.0647 22.955 22.955C25.0647 20.8452 26.25 17.9837 26.25 15C26.25 12.0163 25.0647 9.15483 22.955 7.04505C20.8452 4.93526 17.9837 3.75 15 3.75ZM1.25 15C1.25 7.40625 7.40625 1.25 15 1.25C22.5938 1.25 28.75 7.40625 28.75 15C28.75 22.5938 22.5938 28.75 15 28.75C7.40625 28.75 1.25 22.5938 1.25 15ZM10 10.625V11.875C10 12.0408 10.0658 12.1997 10.1831 12.3169C10.3003 12.4342 10.4592 12.5 10.625 12.5C10.7908 12.5 10.9497 12.4342 11.0669 12.3169C11.1842 12.1997 11.25 12.0408 11.25 11.875V10.625H13.75V11.875C13.75 12.7038 13.4208 13.4987 12.8347 14.0847C12.2487 14.6708 11.4538 15 10.625 15C9.7962 15 9.00134 14.6708 8.41529 14.0847C7.82924 13.4987 7.5 12.7038 7.5 11.875V10.625H10ZM18.75 10.625V11.875C18.75 12.0408 18.8158 12.1997 18.9331 12.3169C19.0503 12.4342 19.2092 12.5 19.375 12.5C19.5408 12.5 19.6997 12.4342 19.8169 12.3169C19.9342 12.1997 20 12.0408 20 11.875V10.625H22.5V11.875C22.5 12.7038 22.1708 13.4987 21.5847 14.0847C20.9987 14.6708 20.2038 15 19.375 15C18.5462 15 17.7513 14.6708 17.1653 14.0847C16.5792 13.4987 16.25 12.7038 16.25 11.875V10.625H18.75ZM9.5875 19.375C10.1358 18.4247 10.9248 17.6356 11.8749 17.087C12.825 16.5385 13.9029 16.2498 15 16.25C16.0971 16.2498 17.175 16.5385 18.1251 17.087C19.0752 17.6356 19.8642 18.4247 20.4125 19.375L21.0387 20.4562L18.875 21.7075L18.25 20.6262C17.9213 20.0552 17.4477 19.5809 16.8771 19.2515C16.3064 18.9221 15.6589 18.7491 15 18.75C14.3413 18.7496 13.6942 18.9227 13.1236 19.2518C12.5531 19.581 12.0793 20.0546 11.75 20.625L11.125 21.7075L8.96125 20.4562L9.5875 19.375Z" fill="black"/>
</svg>
