<svg width="50" height="50" viewBox="0 0 50 50" fill="none" xmlns="http://www.w3.org/2000/svg">
<path d="M34.9999 6.87598C34.9999 6.3787 35.1974 5.90178 35.5491 5.55015C35.9007 5.19852 36.3776 5.00098 36.8749 5.00098H43.1249C43.6222 5.00098 44.0991 5.19852 44.4507 5.55015C44.8023 5.90178 44.9999 6.3787 44.9999 6.87598V13.126C44.9999 13.6233 44.8023 14.1002 44.4507 14.4518C44.0991 14.8034 43.6222 15.001 43.1249 15.001C42.6276 15.001 42.1507 14.8034 41.7991 14.4518C41.4474 14.1002 41.2499 13.6233 41.2499 13.126V11.401L30.0749 22.576C29.7233 22.9271 29.2468 23.1243 28.7499 23.1243C28.253 23.1243 27.7765 22.9271 27.4249 22.576L21.2499 16.401L10.6999 26.951C10.5282 27.1352 10.3212 27.283 10.0912 27.3854C9.86124 27.4879 9.61296 27.543 9.3612 27.5475C9.10944 27.5519 8.85937 27.5056 8.6259 27.4113C8.39243 27.317 8.18035 27.1766 8.0023 26.9986C7.82425 26.8205 7.68389 26.6084 7.58959 26.375C7.49529 26.1415 7.44897 25.8914 7.45342 25.6397C7.45786 25.3879 7.51296 25.1396 7.61544 24.9096C7.71792 24.6796 7.86568 24.4726 8.0499 24.301L19.9249 12.426C20.2765 12.0749 20.753 11.8776 21.2499 11.8776C21.7468 11.8776 22.2233 12.0749 22.5749 12.426L28.7499 18.601L38.5999 8.75098H36.8749C36.3776 8.75098 35.9007 8.55343 35.5491 8.2018C35.1974 7.85017 34.9999 7.37326 34.9999 6.87598ZM9.3749 35.001C9.87218 35.001 10.3491 35.1985 10.7007 35.5502C11.0524 35.9018 11.2499 36.3787 11.2499 36.876V43.126C11.2499 43.6233 11.0524 44.1002 10.7007 44.4518C10.3491 44.8034 9.87218 45.001 9.3749 45.001C8.87761 45.001 8.4007 44.8034 8.04907 44.4518C7.69744 44.1002 7.4999 43.6233 7.4999 43.126V36.876C7.4999 36.3787 7.69744 35.9018 8.04907 35.5502C8.4007 35.1985 8.87761 35.001 9.3749 35.001ZM21.2499 29.376C21.2499 28.8787 21.0523 28.4018 20.7007 28.0502C20.3491 27.6985 19.8722 27.501 19.3749 27.501C18.8776 27.501 18.4007 27.6985 18.0491 28.0502C17.6974 28.4018 17.4999 28.8787 17.4999 29.376V43.126C17.4999 43.6233 17.6974 44.1002 18.0491 44.4518C18.4007 44.8034 18.8776 45.001 19.3749 45.001C19.8722 45.001 20.3491 44.8034 20.7007 44.4518C21.0523 44.1002 21.2499 43.6233 21.2499 43.126V29.376ZM29.3749 32.501C29.8722 32.501 30.3491 32.6985 30.7007 33.0502C31.0523 33.4018 31.2499 33.8787 31.2499 34.376V43.126C31.2499 43.6233 31.0523 44.1002 30.7007 44.4518C30.3491 44.8034 29.8722 45.001 29.3749 45.001C28.8776 45.001 28.4007 44.8034 28.0491 44.4518C27.6974 44.1002 27.4999 43.6233 27.4999 43.126V34.376C27.4999 33.8787 27.6974 33.4018 28.0491 33.0502C28.4007 32.6985 28.8776 32.501 29.3749 32.501ZM41.2499 24.376C41.2499 23.8787 41.0523 23.4018 40.7007 23.0502C40.3491 22.6985 39.8722 22.501 39.3749 22.501C38.8776 22.501 38.4007 22.6985 38.0491 23.0502C37.6974 23.4018 37.4999 23.8787 37.4999 24.376V43.126C37.4999 43.6233 37.6974 44.1002 38.0491 44.4518C38.4007 44.8034 38.8776 45.001 39.3749 45.001C39.8722 45.001 40.3491 44.8034 40.7007 44.4518C41.0523 44.1002 41.2499 43.6233 41.2499 43.126V24.376Z" fill="#5538CE"/>
</svg>
