<svg width="22" height="23" viewBox="0 0 22 23" fill="none" xmlns="http://www.w3.org/2000/svg">
<path fill-rule="evenodd" clip-rule="evenodd" d="M16.3333 0.961914C14.8605 0.961914 13.6666 2.15582 13.6666 3.62858V6.29525C13.6666 7.76801 14.8605 8.96191 16.3333 8.96191H18.9999C20.4727 8.96191 21.6666 7.76801 21.6666 6.29525V3.62858C21.6666 2.15582 20.4727 0.961914 18.9999 0.961914H16.3333ZM2.99992 14.2952C1.52716 14.2952 0.333252 15.4892 0.333252 16.9619V19.6286C0.333252 21.1013 1.52716 22.2952 2.99992 22.2952H5.66659C7.13934 22.2952 8.33325 21.1013 8.33325 19.6286V16.9619C8.33325 15.4892 7.13934 14.2952 5.66659 14.2952H2.99992ZM0.333252 3.62858C0.333252 2.15582 1.52716 0.961914 2.99992 0.961914H5.66659C7.13934 0.961914 8.33325 2.15582 8.33325 3.62858V6.29525C8.33325 7.76801 7.13934 8.96191 5.66659 8.96191H2.99992C1.52716 8.96191 0.333252 7.76801 0.333252 6.29525V3.62858ZM16.3333 14.2952C14.8605 14.2952 13.6666 15.4892 13.6666 16.9619V19.6286C13.6666 21.1013 14.8605 22.2952 16.3333 22.2952H18.9999C20.4727 22.2952 21.6666 21.1013 21.6666 19.6286V16.9619C21.6666 15.4892 20.4727 14.2952 18.9999 14.2952H16.3333Z" fill="black"/>
</svg>
