<svg width="50" height="50" viewBox="0 0 50 50" fill="none" xmlns="http://www.w3.org/2000/svg">
<path d="M15.5624 33.4549C17.1324 33.4549 18.4051 32.1822 18.4051 30.6122C18.4051 29.0423 17.1324 27.7695 15.5624 27.7695C13.9924 27.7695 12.7197 29.0423 12.7197 30.6122C12.7197 32.1822 13.9924 33.4549 15.5624 33.4549Z" stroke="#5538CE" stroke-width="3" stroke-linecap="round" stroke-linejoin="round"/>
<path d="M34.7993 33.2928C36.3692 33.2928 37.642 32.0201 37.642 30.4501C37.642 28.8801 36.3692 27.6074 34.7993 27.6074C33.2293 27.6074 31.9565 28.8801 31.9565 30.4501C31.9565 32.0201 33.2293 33.2928 34.7993 33.2928Z" stroke="#5538CE" stroke-width="3" stroke-linecap="round" stroke-linejoin="round"/>
<path d="M25.0248 21.0858C26.5948 21.0858 27.8675 19.8131 27.8675 18.2431C27.8675 16.6731 26.5948 15.4004 25.0248 15.4004C23.4549 15.4004 22.1821 16.6731 22.1821 18.2431C22.1821 19.8131 23.4549 21.0858 25.0248 21.0858Z" stroke="#5538CE" stroke-width="3" stroke-linecap="round" stroke-linejoin="round"/>
<path d="M25.0248 45.3143C26.5948 45.3143 27.8675 44.0416 27.8675 42.4716C27.8675 40.9016 26.5948 39.6289 25.0248 39.6289C23.4549 39.6289 22.1821 40.9016 22.1821 42.4716C22.1821 44.0416 23.4549 45.3143 25.0248 45.3143Z" stroke="#5538CE" stroke-width="2" stroke-linecap="round" stroke-linejoin="round"/>
<path d="M25.0251 21.0833V39.6281M13.9334 28.2833C4.75219 14.6563 16.5689 4.6875 25.1209 4.6875C33.673 4.6875 44.9397 14.925 36.2876 28.0271" stroke="#5538CE" stroke-width="3" stroke-linecap="round" stroke-linejoin="round"/>
</svg>
