<svg width="36" height="36" viewBox="0 0 36 36" fill="none" xmlns="http://www.w3.org/2000/svg">
<g clip-path="url(#clip0_953_3669)">
<path d="M30.7279 5.2721C27.3282 1.87235 22.808 0 17.9999 0C13.1919 0 8.67178 1.87235 5.2721 5.2721C1.87242 8.67185 0 13.192 0 17.9999C0 22.8079 1.87235 27.3281 5.2721 30.7279C8.67178 34.1277 13.192 36 17.9999 36C22.8078 36 27.3281 34.1277 30.7279 30.7279C34.1277 27.3281 36 22.808 36 18C36 13.192 34.1277 8.67178 30.7279 5.2721ZM16.8849 2.27011V8.87653C12.7065 9.38419 9.38419 12.7065 8.87653 16.885H2.27011C2.81827 9.07629 9.07629 2.81834 16.8849 2.27011ZM11.1286 16.8849C11.6051 13.938 13.938 11.6051 16.8849 11.1286V16.8849H11.1286ZM16.8849 19.115V24.8714C13.938 24.3949 11.6051 22.062 11.1286 19.115H16.8849ZM16.8849 33.7299C9.07629 33.1817 2.81827 26.9238 2.27011 19.1151H8.87653C9.38419 23.2935 12.7065 26.616 16.885 27.1235L16.8849 33.7299ZM19.115 2.27011C26.9237 2.81834 33.1817 9.07629 33.7299 16.8849H27.1235C26.6158 12.7065 23.2935 9.38419 19.1149 8.87653V2.27011H19.115ZM19.115 16.8849V11.1286C22.062 11.6051 24.3949 13.938 24.8714 16.8849H19.115ZM24.8714 19.115C24.3949 22.062 22.062 24.3949 19.115 24.8714V19.115H24.8714ZM19.115 33.73V27.1235C23.2935 26.6159 26.6159 23.2935 27.1235 19.1152H33.73C33.1817 26.9237 26.9237 33.1817 19.115 33.73Z" fill="black"/>
</g>
<defs>
<clipPath id="clip0_953_3669">
<rect width="36" height="36" fill="white"/>
</clipPath>
</defs>
</svg>
