<svg width="32" height="32" viewBox="0 0 32 32" fill="none" xmlns="http://www.w3.org/2000/svg">
<path d="M29.1699 0.967205L6.34181 0.96729C5.31323 0.967202 4.4793 1.80113 4.4793 2.8298C4.4793 3.85848 5.31314 4.69232 6.34181 4.69232L24.6738 4.69241L1.5141 27.8546C0.786845 28.5818 0.786933 29.7611 1.51427 30.4884C2.24161 31.2157 3.42104 31.2156 4.14829 30.4882L27.3075 7.3266L27.3075 25.6579C27.3075 26.6865 28.1414 27.5204 29.17 27.5204C29.6843 27.5205 30.15 27.312 30.4871 26.975C30.8241 26.6379 31.0326 26.1722 31.0325 25.658L31.0324 2.82972C31.0324 2.33575 30.8362 1.86198 30.487 1.51271C30.1377 1.16344 29.6639 0.967118 29.1699 0.967205Z" fill="black"/>
</svg>
