<svg width="24" height="36" viewBox="0 0 24 36" fill="none" xmlns="http://www.w3.org/2000/svg">
<path d="M4.55274 35.3533C4.3531 35.3619 4.15429 35.3226 3.97299 35.2385C3.79168 35.1545 3.63317 35.0282 3.51074 34.8703C3.38831 34.7123 3.30553 34.5274 3.26934 34.3308C3.23315 34.1343 3.2446 33.932 3.30274 33.7408L7.86524 19.1033H2.05274C1.83581 19.1032 1.62263 19.0467 1.43415 18.9394C1.24566 18.832 1.08837 18.6774 0.97774 18.4908C0.86803 18.3007 0.810272 18.0852 0.810272 17.8658C0.810272 17.6463 0.86803 17.4308 0.97774 17.2408L9.72774 0.990771C9.83522 0.799521 9.99115 0.639926 10.1798 0.528024C10.3685 0.416121 10.5834 0.355852 10.8027 0.353271H19.5527C19.7697 0.353309 19.9829 0.4098 20.1713 0.517191C20.3598 0.624582 20.5171 0.779175 20.6277 0.965771C20.7375 1.1558 20.7952 1.37135 20.7952 1.59077C20.7952 1.81019 20.7375 2.02575 20.6277 2.21577L15.4277 11.6033H22.0527C22.2883 11.6039 22.519 11.6712 22.718 11.7972C22.9171 11.9233 23.0764 12.1031 23.1777 12.3158C23.2812 12.5309 23.3209 12.7713 23.2921 13.0083C23.2633 13.2453 23.1672 13.4691 23.0152 13.6533L5.51524 34.9033C5.39771 35.0444 5.25054 35.1578 5.08418 35.2356C4.91783 35.3134 4.73638 35.3536 4.55274 35.3533ZM4.14024 16.6033H9.55274C9.74786 16.6047 9.93993 16.6518 10.1136 16.7408C10.2872 16.8298 10.4376 16.9582 10.5527 17.1158C10.6692 17.271 10.7479 17.4512 10.7826 17.6422C10.8173 17.8331 10.8071 18.0295 10.7527 18.2158L7.60274 28.4283L19.4027 14.1033H13.3027C13.0858 14.1032 12.8726 14.0467 12.6841 13.9394C12.4957 13.832 12.3384 13.6774 12.2277 13.4908C12.118 13.3007 12.0603 13.0852 12.0603 12.8658C12.0603 12.6463 12.118 12.4308 12.2277 12.2408L17.4277 2.85327H11.5527L4.14024 16.6033Z" fill="#FFC121"/>
</svg>
