<svg width="36" height="36" viewBox="0 0 36 36" fill="none" xmlns="http://www.w3.org/2000/svg">
<path d="M9.18981 7.30752C11.6609 5.26909 14.7894 4.14641 17.9989 4.14641C24.9694 4.14641 30.753 9.32163 31.7115 16.0313L30.9378 15.5578L29.7422 17.3569L32.983 19.2828L36 16.9975L34.5721 15.3416L33.8282 15.9287C33.3803 12.4497 31.8072 9.23352 29.286 6.7124C26.2712 3.69747 22.2626 2.03711 17.9989 2.03711C14.3008 2.03711 10.6955 3.331 7.84754 5.68035C5.038 7.99799 3.08992 11.2285 2.36218 14.7767L4.4286 15.2005C5.05979 12.1227 6.75067 9.31959 9.18981 7.30752Z" fill="black"/>
<path d="M26.808 28.692C24.3368 30.7304 21.2084 31.8531 17.9989 31.8531C11.0272 31.8531 5.24299 26.6762 4.28576 19.965L5.06292 20.4394L6.25781 18.6389L3.01317 16.7168L0 19.0057L1.42889 20.6599L2.16991 20.0737C2.6183 23.5516 4.19126 26.7667 6.71168 29.2871C9.72654 32.3021 13.7351 33.9624 17.9988 33.9624C21.697 33.9624 25.3022 32.6685 28.1502 30.3192C30.9597 28.0015 32.9078 24.7711 33.6355 21.2228L31.5691 20.7991C30.938 23.8768 29.247 26.6799 26.808 28.692Z" fill="black"/>
<path d="M12.7969 24.7488V21.1812L13.9486 21.8604L15.0202 20.0435L11.7422 18.1104L8.46423 20.0435L9.5358 21.8604L10.6875 21.1812V24.7488H12.7969Z" fill="black"/>
<path d="M19.0547 24.7488V17.1031L20.2064 17.7823L21.278 15.9653L18 14.0322L14.722 15.9653L15.7936 17.7823L16.9453 17.1031V24.7488H19.0547Z" fill="black"/>
<path d="M25.3125 24.7488V12.7437L26.4642 13.4229L27.5358 11.606L24.2578 9.67285L20.9799 11.606L22.0514 13.4229L23.2031 12.7437V24.7488H25.3125Z" fill="black"/>
</svg>
