<svg width="36" height="36" viewBox="0 0 36 36" fill="none" xmlns="http://www.w3.org/2000/svg">
<g clip-path="url(#clip0_953_3688)">
<path d="M21.7969 36H8.4375C3.78506 36 0 32.2149 0 27.5625V8.4375C0 3.78506 3.78506 0 8.4375 0H27.5625C32.2149 0 36 3.78506 36 8.4375V21.9023C36 22.679 35.3704 23.3086 34.5938 23.3086C33.8171 23.3086 33.1875 22.679 33.1875 21.9023V8.4375C33.1875 5.33588 30.6641 2.8125 27.5625 2.8125H8.4375C5.33588 2.8125 2.8125 5.33588 2.8125 8.4375V27.5625C2.8125 30.6641 5.33588 33.1875 8.4375 33.1875H21.7969C22.5735 33.1875 23.2031 33.8171 23.2031 34.5938C23.2031 35.3704 22.5735 36 21.7969 36ZM28.9688 8.85938C28.9688 8.0827 28.3392 7.45312 27.5625 7.45312H14.6953C13.9186 7.45312 13.2891 8.0827 13.2891 8.85938C13.2891 9.63605 13.9186 10.2656 14.6953 10.2656H27.5625C28.3392 10.2656 28.9688 9.63605 28.9688 8.85938ZM28.9688 14.4844C28.9688 13.7077 28.3392 13.0781 27.5625 13.0781H8.4375C7.66083 13.0781 7.03125 13.7077 7.03125 14.4844C7.03125 15.261 7.66083 15.8906 8.4375 15.8906H27.5625C28.3392 15.8906 28.9688 15.261 28.9688 14.4844ZM14.9062 20.1094C14.9062 19.3327 14.2767 18.7031 13.5 18.7031H8.4375C7.66083 18.7031 7.03125 19.3327 7.03125 20.1094C7.03125 20.886 7.66083 21.5156 8.4375 21.5156H13.5C14.2767 21.5156 14.9062 20.886 14.9062 20.1094ZM7.03125 8.71875C7.03125 9.68956 7.81826 10.4766 8.78906 10.4766C9.75987 10.4766 10.5469 9.68956 10.5469 8.71875C10.5469 7.74795 9.75987 6.96094 8.78906 6.96094C7.81826 6.96094 7.03125 7.74795 7.03125 8.71875ZM34.4966 34.4966C36.4979 32.4953 36.4979 29.239 34.4966 27.2377L29.5671 22.3083C28.1424 20.8834 26.3449 19.9217 24.3692 19.5268L20.385 18.7304C19.9242 18.6381 19.4475 18.7826 19.115 19.115C18.7826 19.4475 18.6383 19.924 18.7304 20.3851L19.5268 24.3693C19.9217 26.345 20.8835 28.1424 22.3082 29.5672L27.2377 34.4966C28.2072 35.466 29.4962 36 30.8672 36C32.2382 36 33.5272 35.466 34.4966 34.4966ZM23.8179 22.2847C25.2473 22.5704 26.5476 23.2661 27.5783 24.2969L32.5079 29.2264C33.4126 30.1311 33.4126 31.6031 32.5079 32.5079C32.0697 32.9461 31.4869 33.1875 30.8672 33.1875C30.2475 33.1875 29.6647 32.9461 29.2265 32.5079L24.297 27.5784C23.2663 26.5476 22.5705 25.2473 22.2848 23.818L21.9018 21.9018L23.8179 22.2847Z" fill="black"/>
</g>
<defs>
<clipPath id="clip0_953_3688">
<rect width="36" height="36" fill="white"/>
</clipPath>
</defs>
</svg>
