<svg width="40" height="40" viewBox="0 0 40 40" fill="none" xmlns="http://www.w3.org/2000/svg">
<path d="M20.7993 12.7507L28.5735 17.6716L27.1235 18.7266L19.9377 14.1782L12.8218 18.7249L11.3818 17.6666L19.071 12.7549C19.3286 12.5892 19.6283 12.5007 19.9346 12.5C20.2409 12.4993 20.5409 12.5863 20.7993 12.7507Z" fill="#5538CE"/>
<path fill-rule="evenodd" clip-rule="evenodd" d="M5.69607 17.4269C4.73107 16.7186 4.77774 15.2194 5.78441 14.5769L19.0711 6.08694C19.3287 5.92123 19.6283 5.83277 19.9346 5.83204C20.2409 5.8313 20.541 5.91831 20.7994 6.08277L34.2102 14.5719C35.2244 15.2136 35.2711 16.7219 34.2977 17.4303L20.8886 27.1886C20.3169 27.6053 19.5544 27.6028 18.9836 27.1844L5.69607 17.4269ZM6.68191 15.9803L19.9377 7.5111L33.3186 15.9811L33.3227 15.9836L33.3236 15.9861C33.33 15.9994 33.3334 16.0139 33.3336 16.0286C33.3342 16.0443 33.3314 16.06 33.3252 16.0744L33.3236 16.0786L33.3177 16.0836L19.9386 25.8178L6.68274 16.0836C6.6806 16.0822 6.67864 16.0805 6.67691 16.0786L6.67441 16.0736C6.66864 16.0593 6.66608 16.044 6.66691 16.0286C6.66707 16.0139 6.67048 15.9994 6.67691 15.9861L6.67774 15.9836L6.68191 15.9803Z" fill="#5538CE"/>
<path d="M6.86441 20.553L8.30441 21.6113L6.68191 22.6472C6.68042 22.6481 6.67903 22.6493 6.67774 22.6505L6.67691 22.653C6.6706 22.666 6.66719 22.6802 6.66691 22.6947C6.66596 22.7115 6.6691 22.7284 6.67607 22.7438L6.67691 22.7455L6.68274 22.7505L19.9386 32.4847L33.3177 22.7505L33.3236 22.7455L33.3244 22.7438L33.3261 22.7413C33.3319 22.7268 33.3345 22.7111 33.3336 22.6955C33.3334 22.6808 33.33 22.6663 33.3236 22.653L33.3227 22.6505L33.3186 22.648L31.6686 21.603L33.1186 20.5488L34.2102 21.2397C35.2244 21.8813 35.2711 23.3897 34.2977 24.098L20.8886 33.8555C20.3169 34.2722 19.5544 34.2697 18.9836 33.8513L5.69607 24.093C4.73107 23.3847 4.77774 21.8863 5.78441 21.243L6.86441 20.553Z" fill="#5538CE"/>
</svg>
