<svg width="32" height="33" viewBox="0 0 32 33" fill="none" xmlns="http://www.w3.org/2000/svg">
<g clip-path="url(#clip0_953_4198)">
<path d="M25.3934 6.18945H23.5148C22.9956 6.18945 22.5754 6.60958 22.5754 7.12883C22.5754 7.64801 22.9955 8.0682 23.5148 8.0682H25.3934C25.9126 8.0682 26.3328 7.64808 26.3328 7.12883C26.3327 6.60958 25.9126 6.18945 25.3934 6.18945Z" fill="#FFFF56"/>
<path d="M15.901 2.95212L14.9616 1.07344C14.7278 0.609252 14.1654 0.423065 13.7012 0.653314C13.237 0.885376 13.049 1.44956 13.2811 1.91375L14.2205 3.79243C14.4522 4.25475 15.0136 4.44468 15.4809 4.21256C15.945 3.9805 16.133 3.41631 15.901 2.95212Z" fill="#FFFF56"/>
<path d="M22.0562 0.653303C21.5938 0.423053 21.0279 0.609303 20.7957 1.07343L19.8564 2.95211C19.6243 3.4163 19.8124 3.98042 20.2765 4.21255C20.7452 4.4453 21.3059 4.25317 21.5369 3.79242L22.4763 1.91374C22.7084 1.44955 22.5203 0.885365 22.0562 0.653303Z" fill="#FFFF56"/>
<path d="M12.2426 6.18945H10.3639C9.84475 6.18945 9.42456 6.60958 9.42456 7.12883C9.42456 7.64801 9.84468 8.0682 10.3639 8.0682H12.2426C12.7618 8.0682 13.182 7.64808 13.182 7.12883C13.182 6.60958 12.7618 6.18945 12.2426 6.18945Z" fill="#FFFF56"/>
<path d="M6.60653 15.6465H2.8491C2.33035 15.6465 1.90973 16.067 1.90973 16.5859V31.6153C1.90973 32.1341 2.33029 32.5547 2.8491 32.5547H6.60647C7.12522 32.5547 7.54584 32.1341 7.54584 31.6153V16.5858C7.54584 16.067 7.12534 15.6465 6.60653 15.6465Z" fill="white"/>
<path d="M30.0715 18.1354C29.9058 16.6782 28.5446 15.6454 27.0781 15.6454H19.7547C20.377 14.531 20.7111 11.3789 20.6963 10.0913C20.6717 7.95995 18.9067 6.25195 16.7752 6.25195H16.0001C15.4809 6.25195 15.0607 6.67208 15.0607 7.19133C15.0607 9.36351 14.2149 13.2843 12.6197 14.8795C11.5461 15.9532 10.6282 16.3422 9.42462 16.9437V31.0386C11.2673 31.6528 13.6069 32.5537 17.173 32.5537H23.3177C25.3424 32.5537 26.9193 30.6785 26.1347 28.6973C27.33 28.3717 28.2115 27.2754 28.2115 25.9783C28.2115 25.6122 28.1409 25.2619 28.0134 24.9399C30.0277 24.391 30.7691 21.9039 29.3711 20.3422C29.8847 19.7684 30.168 18.9835 30.0715 18.1354Z" fill="url(#paint0_linear_953_4198)"/>
</g>
<defs>
<linearGradient id="paint0_linear_953_4198" x1="0.350771" y1="32.5537" x2="20.7208" y2="32.5537" gradientUnits="userSpaceOnUse">
<stop stop-color="white" stop-opacity="0.18"/>
<stop offset="1" stop-color="white"/>
</linearGradient>
<clipPath id="clip0_953_4198">
<rect width="32" height="32" fill="white" transform="translate(0 0.554688)"/>
</clipPath>
</defs>
</svg>
