<svg width="14" height="17" viewBox="0 0 14 17" fill="none" xmlns="http://www.w3.org/2000/svg">
<path d="M9.99995 7.69369C9.99995 8.48934 9.68388 9.25241 9.12127 9.81501C8.55866 10.3776 7.7956 10.6937 6.99995 10.6937C6.2043 10.6937 5.44124 10.3776 4.87863 9.81501C4.31602 9.25241 3.99995 8.48934 3.99995 7.69369C3.99995 6.89804 4.31602 6.13498 4.87863 5.57237C5.44124 5.00976 6.2043 4.69369 6.99995 4.69369C7.7956 4.69369 8.55866 5.00976 9.12127 5.57237C9.68388 6.13498 9.99995 6.89804 9.99995 7.69369ZM8.99995 7.69369C8.99995 7.16326 8.78923 6.65455 8.41416 6.27948C8.03909 5.90441 7.53038 5.69369 6.99995 5.69369C6.46951 5.69369 5.96081 5.90441 5.58573 6.27948C5.21066 6.65455 4.99995 7.16326 4.99995 7.69369C4.99995 8.22413 5.21066 8.73283 5.58573 9.10791C5.96081 9.48298 6.46951 9.69369 6.99995 9.69369C7.53038 9.69369 8.03909 9.48298 8.41416 9.10791C8.78923 8.73283 8.99995 8.22413 8.99995 7.69369ZM11.9499 12.6487C13.2629 11.3351 14.0004 9.55391 14.0004 7.69669C14.0004 5.83948 13.2629 4.05828 11.9499 2.74469C11.3001 2.09437 10.5284 1.57848 9.67905 1.2265C8.82971 0.874524 7.91933 0.693359 6.99995 0.693359C6.08056 0.693359 5.17018 0.874524 4.32084 1.2265C3.47149 1.57848 2.69983 2.09437 2.04995 2.74469C0.737039 4.05828 -0.000488281 5.83948 -0.000488281 7.69669C-0.000488281 9.55391 0.737039 11.3351 2.04995 12.6487L3.57095 14.1477L5.61395 16.1327L5.74695 16.2507C6.52195 16.8787 7.65695 16.8387 8.38695 16.1327L10.8219 13.7627L11.9499 12.6487ZM2.75495 3.44969C3.31232 2.89207 3.97409 2.44973 4.70246 2.14793C5.43083 1.84614 6.21153 1.6908 6.99995 1.6908C7.78836 1.6908 8.56906 1.84614 9.29743 2.14793C10.0258 2.44973 10.6876 2.89207 11.2449 3.44969C12.3397 4.54514 12.9691 6.02101 13.0019 7.56935C13.0347 9.11768 12.4683 10.6189 11.4209 11.7597L11.2449 11.9437L9.92395 13.2477L7.69395 15.4167L7.59995 15.4967C7.42694 15.6268 7.21627 15.6971 6.99978 15.6969C6.78329 15.6968 6.57274 15.6261 6.39995 15.4957L6.30695 15.4157L3.32695 12.5107L2.75495 11.9437L2.57895 11.7607C1.53159 10.6199 0.965225 9.11868 0.998018 7.57035C1.03081 6.02201 1.66023 4.54514 2.75495 3.44969Z" fill="black"/>
</svg>
