<svg width="36" height="36" viewBox="0 0 36 36" fill="none" xmlns="http://www.w3.org/2000/svg">
<g clip-path="url(#clip0_953_3694)">
<path d="M30.7036 7.45277C30.217 7.21827 29.6386 7.28366 29.2164 7.62018C29.1637 7.66216 23.8957 11.8129 18.8438 11.8129H14.3438C12.3277 11.8129 10.6875 13.4531 10.6875 15.4692V17.7192C10.6875 19.7352 12.3277 21.3754 14.3438 21.3754H17.4375V26.7192C17.4375 27.4958 18.0671 28.1254 18.8438 28.1254C19.6204 28.1254 20.25 27.4958 20.25 26.7192V21.476C24.8276 22.1099 29.1685 25.53 29.2153 25.5673C29.6381 25.9056 30.2167 25.9704 30.7029 25.7367C31.1901 25.5025 31.5 25.0097 31.5 24.4692V8.71916C31.5 8.17909 31.1902 7.68719 30.7036 7.45277ZM14.3438 18.5629C13.8864 18.5629 13.5 18.1765 13.5 17.7192V15.4692C13.5 15.0118 13.8864 14.6254 14.3438 14.6254H17.4375V18.5629H14.3438ZM28.6875 21.8035C26.675 20.5724 23.5593 19.0097 20.25 18.6427V14.5455C23.5593 14.1786 26.675 12.6159 28.6875 11.3847V21.8035Z" fill="black"/>
<path d="M34.5938 12.9375C33.8171 12.9375 33.1875 13.5671 33.1875 14.3438V18.8438C33.1875 19.6204 33.8171 20.25 34.5938 20.25C35.3704 20.25 36 19.6204 36 18.8438V14.3438C36 13.5671 35.3704 12.9375 34.5938 12.9375Z" fill="black"/>
<path d="M23.9062 25.6534C23.1296 25.6534 22.5 26.283 22.5 27.0597V31.7812C22.5 32.5567 21.8692 33.1875 21.0938 33.1875H4.21875C3.44334 33.1875 2.8125 32.5567 2.8125 31.7812V4.21875C2.8125 3.44334 3.44334 2.8125 4.21875 2.8125H21.0938C21.8692 2.8125 22.5 3.44334 22.5 4.21875V6.13202C22.5 6.9087 23.1296 7.53827 23.9062 7.53827C24.6829 7.53827 25.3125 6.9087 25.3125 6.13202V4.21875C25.3125 1.89253 23.42 0 21.0938 0H4.21875C1.89253 0 0 1.89253 0 4.21875V31.7812C0 34.1075 1.89253 36 4.21875 36H21.0938C23.42 36 25.3125 34.1075 25.3125 31.7812V27.0597C25.3125 26.283 24.6829 25.6534 23.9062 25.6534Z" fill="black"/>
<path d="M11.25 30.375H14.0625C14.8392 30.375 15.4688 29.7454 15.4688 28.9688C15.4688 28.1921 14.8392 27.5625 14.0625 27.5625H11.25C10.4733 27.5625 9.84375 28.1921 9.84375 28.9688C9.84375 29.7454 10.4733 30.375 11.25 30.375Z" fill="black"/>
<path d="M14.0625 7.3125C14.8392 7.3125 15.4688 6.68292 15.4688 5.90625C15.4688 5.12958 14.8392 4.5 14.0625 4.5H11.25C10.4733 4.5 9.84375 5.12958 9.84375 5.90625C9.84375 6.68292 10.4733 7.3125 11.25 7.3125H14.0625Z" fill="black"/>
</g>
<defs>
<clipPath id="clip0_953_3694">
<rect width="36" height="36" fill="white"/>
</clipPath>
</defs>
</svg>
