<svg width="12" height="13" viewBox="0 0 12 13" fill="none" xmlns="http://www.w3.org/2000/svg">
<path d="M11.1426 0.629991L2.22885 0.630025C1.82721 0.62999 1.50158 0.955619 1.50158 1.35729C1.50158 1.75896 1.82718 2.08456 2.22885 2.08456L9.38703 2.08459L0.343743 11.1288C0.0597688 11.4128 0.0598029 11.8733 0.343811 12.1573C0.62782 12.4413 1.08836 12.4413 1.37233 12.1572L10.4154 3.11318L10.4154 10.2711C10.4154 10.6728 10.741 10.9984 11.1427 10.9984C11.3435 10.9984 11.5254 10.917 11.657 10.7854C11.7886 10.6538 11.87 10.4719 11.8699 10.2711L11.8699 1.35726C11.8699 1.16438 11.7933 0.979379 11.6569 0.842997C11.5206 0.706615 11.3356 0.629956 11.1426 0.629991Z" fill="#5538CE"/>
</svg>
