<svg width="12" height="12" viewBox="0 0 12 12" fill="none" xmlns="http://www.w3.org/2000/svg">
<path d="M11.1426 0.0333111L2.22885 0.033345C1.82721 0.0333106 1.50158 0.358939 1.50158 0.76061C1.50158 1.16228 1.82718 1.48788 2.22885 1.48788L9.38703 1.48791L0.343743 10.5322C0.0597688 10.8161 0.0598029 11.2766 0.343811 11.5606C0.62782 11.8446 1.08836 11.8446 1.37233 11.5605L10.4154 2.5165L10.4154 9.67441C10.4154 10.0761 10.741 10.4017 11.1427 10.4017C11.3435 10.4017 11.5254 10.3203 11.657 10.1887C11.7886 10.0571 11.87 9.87524 11.8699 9.67444L11.8699 0.760577C11.8699 0.567695 11.7933 0.382699 11.6569 0.246318C11.5206 0.109936 11.3356 0.0332767 11.1426 0.0333111Z" fill="black"/>
</svg>
