<svg width="50" height="50" viewBox="0 0 50 50" fill="none" xmlns="http://www.w3.org/2000/svg">
<g clip-path="url(#clip0_953_1936)">
<path d="M21.1914 35.6697C22.2493 36.2068 23.2015 36.866 24.0479 37.6472C24.8942 38.4285 25.6266 39.3074 26.2451 40.284C26.8636 41.2605 27.3275 42.3022 27.6367 43.409C27.946 44.5157 28.1087 45.6713 28.125 46.8758H25C25 45.59 24.7559 44.3774 24.2676 43.2381C23.7793 42.0987 23.112 41.1059 22.2656 40.2596C21.4193 39.4132 20.4183 38.7377 19.2627 38.2332C18.1071 37.7286 16.8945 37.4845 15.625 37.5008C14.3229 37.5008 13.1104 37.7449 11.9873 38.2332C10.8643 38.7215 9.87142 39.3888 9.00879 40.2351C8.14616 41.0815 7.4707 42.0825 6.98242 43.2381C6.49414 44.3937 6.25 45.6062 6.25 46.8758H3.125C3.125 45.6876 3.28776 44.5401 3.61328 43.4334C3.9388 42.3266 4.40267 41.2849 5.00488 40.3084C5.6071 39.3318 6.33138 38.4529 7.17773 37.6717C8.02409 36.8904 8.98438 36.2231 10.0586 35.6697C8.85417 34.7745 7.91829 33.6678 7.25098 32.3494C6.58366 31.031 6.25 29.6232 6.25 28.1258C6.25 26.84 6.49414 25.6274 6.98242 24.4881C7.4707 23.3487 8.13802 22.3559 8.98438 21.5096C9.83073 20.6632 10.8236 19.9877 11.9629 19.4832C13.1022 18.9786 14.3229 18.7345 15.625 18.7508C17.1224 18.7508 18.5303 19.0844 19.8486 19.7517C21.167 20.4191 22.2738 21.3549 23.1689 22.5594C23.7874 21.3387 24.5768 20.2482 25.5371 19.2879C26.4974 18.3276 27.5879 17.5382 28.8086 16.9197C27.6042 16.0245 26.6683 14.9178 26.001 13.5994C25.3337 12.281 25 10.8732 25 9.37576C25 8.08996 25.2441 6.87739 25.7324 5.73807C26.2207 4.59874 26.888 3.60591 27.7344 2.75955C28.5807 1.9132 29.5736 1.23774 30.7129 0.733185C31.8522 0.228628 33.0729 -0.0155131 34.375 0.000762939C35.6608 0.000762939 36.8734 0.244904 38.0127 0.733185C39.152 1.22147 40.1449 1.88878 40.9912 2.73514C41.8376 3.58149 42.513 4.58247 43.0176 5.73807C43.5221 6.89367 43.7663 8.10623 43.75 9.37576C43.75 10.8732 43.4163 12.281 42.749 13.5994C42.0817 14.9178 41.1458 16.0245 39.9414 16.9197C40.9993 17.4568 41.9515 18.116 42.7979 18.8972C43.6442 19.6785 44.3766 20.5574 44.9951 21.534C45.6136 22.5105 46.0775 23.5522 46.3867 24.659C46.696 25.7657 46.8587 26.9213 46.875 28.1258H43.75C43.75 26.84 43.5059 25.6274 43.0176 24.4881C42.5293 23.3487 41.862 22.3559 41.0156 21.5096C40.1693 20.6632 39.1683 19.9877 38.0127 19.4832C36.8571 18.9786 35.6445 18.7345 34.375 18.7508C33.0729 18.7508 31.8604 18.9949 30.7373 19.4832C29.6143 19.9715 28.6214 20.6388 27.7588 21.4851C26.8962 22.3315 26.2207 23.3325 25.7324 24.4881C25.2441 25.6437 25 26.8562 25 28.1258C25 29.6232 24.6663 31.031 23.999 32.3494C23.3317 33.6678 22.3958 34.7745 21.1914 35.6697ZM28.125 9.37576C28.125 10.2384 28.2878 11.0441 28.6133 11.7928C28.9388 12.5415 29.3864 13.2088 29.9561 13.7947C30.5257 14.3806 31.1849 14.8282 31.9336 15.1375C32.6823 15.4467 33.4961 15.6095 34.375 15.6258C35.2376 15.6258 36.0433 15.463 36.792 15.1375C37.5407 14.812 38.208 14.3644 38.7939 13.7947C39.3799 13.225 39.8275 12.5659 40.1367 11.8172C40.446 11.0685 40.6087 10.2547 40.625 9.37576C40.625 8.51313 40.4622 7.70747 40.1367 6.95877C39.8112 6.21007 39.3636 5.54276 38.7939 4.95682C38.2243 4.37088 37.5651 3.92329 36.8164 3.61404C36.0677 3.3048 35.2539 3.14204 34.375 3.12576C33.5124 3.12576 32.7067 3.28852 31.958 3.61404C31.2093 3.93956 30.542 4.38716 29.9561 4.95682C29.3701 5.52648 28.9225 6.18566 28.6133 6.93436C28.304 7.68305 28.1413 8.49686 28.125 9.37576ZM9.375 28.1258C9.375 28.9884 9.53776 29.7941 9.86328 30.5428C10.1888 31.2915 10.6364 31.9588 11.2061 32.5447C11.7757 33.1306 12.4349 33.5782 13.1836 33.8875C13.9323 34.1967 14.7461 34.3595 15.625 34.3758C16.4876 34.3758 17.2933 34.213 18.042 33.8875C18.7907 33.562 19.458 33.1144 20.0439 32.5447C20.6299 31.975 21.0775 31.3159 21.3867 30.5672C21.696 29.8185 21.8587 29.0047 21.875 28.1258C21.875 27.2631 21.7122 26.4575 21.3867 25.7088C21.0612 24.9601 20.6136 24.2928 20.0439 23.7068C19.4743 23.1209 18.8151 22.6733 18.0664 22.364C17.3177 22.0548 16.5039 21.892 15.625 21.8758C14.7624 21.8758 13.9567 22.0385 13.208 22.364C12.4593 22.6896 11.792 23.1372 11.2061 23.7068C10.6201 24.2765 10.1725 24.9357 9.86328 25.6844C9.55404 26.4331 9.39128 27.2469 9.375 28.1258ZM46.0938 50.0008L39.0625 44.5076L32.0312 50.0008L34.8633 41.2117L28.125 35.9383H36.5479L39.0625 28.1258L41.5771 35.9383H50L43.2617 41.2117L46.0938 50.0008Z" fill="#5538CE"/>
</g>
<defs>
<clipPath id="clip0_953_1936">
<rect width="50" height="50" fill="white"/>
</clipPath>
</defs>
</svg>
