<svg width="40" height="40" viewBox="0 0 40 40" fill="none" xmlns="http://www.w3.org/2000/svg">
<path d="M39.4126 14.3367L33.1627 8.08667C32.9869 7.91111 32.7486 7.8125 32.5001 7.8125C32.2517 7.8125 32.0134 7.91111 31.8376 8.08667L26.2501 13.6742L20.6627 8.08667C20.4869 7.91111 20.2486 7.8125 20.0002 7.8125C19.7517 7.8125 19.5134 7.91111 19.3377 8.08667L13.7502 13.6742L8.16265 8.08667C7.98687 7.91111 7.74859 7.8125 7.50015 7.8125C7.25171 7.8125 7.01343 7.91111 6.83765 8.08667L0.587652 14.3367C0.412089 14.5125 0.313477 14.7507 0.313477 14.9992C0.313477 15.2476 0.412089 15.4859 0.587652 15.6617L6.83765 21.9117C7.01343 22.0872 7.25171 22.1859 7.50015 22.1859C7.74859 22.1859 7.98687 22.0872 8.16265 21.9117L13.7502 16.3242L18.6751 21.2492L13.0877 26.8367C12.9121 27.0125 12.8135 27.2507 12.8135 27.4992C12.8135 27.7476 12.9121 27.9859 13.0877 28.1617L19.3377 34.4117C19.5134 34.5872 19.7517 34.6859 20.0002 34.6859C20.2486 34.6859 20.4869 34.5872 20.6627 34.4117L26.9126 28.1617C27.0882 27.9859 27.1868 27.7476 27.1868 27.4992C27.1868 27.2507 27.0882 27.0125 26.9126 26.8367L21.3251 21.2492L26.2501 16.3242L31.8376 21.9117C32.0134 22.0872 32.2517 22.1859 32.5001 22.1859C32.7486 22.1859 32.9869 22.0872 33.1627 21.9117L39.4126 15.6617C39.5882 15.4859 39.6868 15.2476 39.6868 14.9992C39.6868 14.7507 39.5882 14.5125 39.4126 14.3367ZM7.50015 19.9226L2.57671 14.9992L7.50015 10.0757L12.4236 14.9992L7.50015 19.9226ZM20.0002 32.4226L15.0767 27.4992L20.0002 22.5757L24.9236 27.4992L20.0002 32.4226ZM20.0002 19.9226L15.0767 14.9992L20.0002 10.0757L24.9236 14.9992L20.0002 19.9226ZM32.5001 19.9226L27.5767 14.9992L32.5001 10.0757L37.4236 14.9992L32.5001 19.9226Z" fill="#5538CE"/>
</svg>
