<svg width="30" height="30" viewBox="0 0 30 30" fill="none" xmlns="http://www.w3.org/2000/svg">
<path d="M15.0004 28.6921C16.4074 28.6921 17.8007 28.4149 19.1006 27.8765C20.4005 27.338 21.5816 26.5488 22.5766 25.5539C23.5715 24.559 24.3607 23.3779 24.8991 22.078C25.4376 20.778 25.7147 19.3848 25.7147 17.9778V12.0206C25.7148 9.38853 24.7461 6.84847 22.9933 4.88492M4.28613 14.3992V17.9778C4.28542 20.087 4.90725 22.1495 6.0737 23.9068C7.24014 25.6641 8.89932 27.038 10.8433 27.8563M20.3576 2.74206C17.8967 1.32132 14.9723 0.936307 12.2276 1.67171C9.48287 2.40712 7.1427 4.20271 5.72185 6.66349C5.1368 7.67391 4.72402 8.77467 4.50042 9.92063" stroke="black" stroke-width="2" stroke-linecap="round" stroke-linejoin="round"/>
<path d="M13.8861 7.52049C14.6743 7.35687 15.4891 7.37224 16.2705 7.56545C17.0519 7.75867 17.78 8.12481 18.401 8.63688C19.0221 9.14895 19.5203 9.79388 19.8589 10.5241C20.1975 11.2544 20.3679 12.0513 20.3575 12.8562V16.3062M18.9861 20.8062C18.257 21.6184 17.2973 22.1884 16.2353 22.4402C15.1733 22.6919 14.0598 22.6132 13.0437 22.2147C12.0276 21.8162 11.1575 21.1169 10.5498 20.2103C9.94214 19.3037 9.62584 18.2332 9.64326 17.1419V12.8562C9.63919 12.1202 9.785 11.3911 10.0718 10.7134M15.0004 13.0919V16.6705" stroke="black" stroke-width="2" stroke-linecap="round" stroke-linejoin="round"/>
</svg>
