<svg width="16" height="16" viewBox="0 0 16 16" fill="none" xmlns="http://www.w3.org/2000/svg">
<path d="M7.48914 0.215484L1.18616 6.51851C0.902138 6.80249 0.902138 7.263 1.18616 7.54702C1.47019 7.83105 1.93065 7.83105 2.21467 7.54702L7.2763 2.48545L7.27698 15.2753C7.27698 15.6769 7.6026 16.0024 8.00425 16.0024C8.4059 16.0024 8.73152 15.6768 8.73147 15.2751L8.73079 2.48559L13.7922 7.54697C14.0762 7.831 14.5367 7.831 14.8207 7.54697C14.9627 7.40501 15.0338 7.21888 15.0338 7.03274C15.0338 6.84661 14.9627 6.66048 14.8207 6.51851L8.51765 0.215484C8.38127 0.0790965 8.1963 0.00244204 8.00342 0.00244205C7.81055 0.00244206 7.62553 0.0790479 7.48914 0.215484Z" fill="black"/>
</svg>
