<svg width="24" height="25" viewBox="0 0 24 25" fill="none" xmlns="http://www.w3.org/2000/svg">
<path d="M22.2853 0.969939L4.45769 0.970009C3.65442 0.96994 3.00316 1.6212 3.00316 2.42454C3.00316 3.22788 3.65435 3.87907 4.45769 3.87907L18.7741 3.87914L0.687485 21.9676C0.119537 22.5356 0.119605 23.4565 0.687622 24.0245C1.25564 24.5926 2.17671 24.5925 2.74466 24.0244L20.8308 5.93631L20.8309 20.2521C20.8309 21.0555 21.4821 21.7067 22.2854 21.7067C22.687 21.7067 23.0507 21.544 23.3139 21.2807C23.5772 21.0175 23.74 20.6538 23.7399 20.2522L23.7398 2.42447C23.7398 2.03871 23.5866 1.66872 23.3139 1.39595C23.0411 1.12319 22.6711 0.96987 22.2853 0.969939Z" fill="#F8F9FD"/>
</svg>
