<svg width="12" height="12" viewBox="0 0 12 12" fill="none" xmlns="http://www.w3.org/2000/svg">
<path d="M11.0997 0.0333111L2.18588 0.033345C1.78424 0.0333106 1.45861 0.358939 1.45861 0.76061C1.45861 1.16228 1.78421 1.48788 2.18588 1.48788L9.34406 1.48791L0.300774 10.5322C0.0168 10.8161 0.0168341 11.2766 0.300843 11.5606C0.584851 11.8446 1.04539 11.8446 1.32936 11.5605L10.3724 2.5165L10.3725 9.67441C10.3725 10.0761 10.6981 10.4017 11.0997 10.4017C11.3005 10.4017 11.4824 10.3203 11.614 10.1887C11.7456 10.0571 11.827 9.87524 11.827 9.67444L11.8269 0.760577C11.8269 0.567695 11.7503 0.382699 11.614 0.246318C11.4776 0.109936 11.2926 0.0332767 11.0997 0.0333111Z" fill="#E9EBF1"/>
</svg>
