<svg width="24" height="22" viewBox="0 0 24 22" fill="none" xmlns="http://www.w3.org/2000/svg">
<path d="M0.319566 11.5522L9.77411 21.0066C10.2001 21.4327 10.8908 21.4327 11.3169 21.0066C11.7429 20.5806 11.7429 19.8899 11.3169 19.4639L3.72451 11.8714L22.9092 11.8704C23.5116 11.8704 24 11.382 24 10.7795C24 10.177 23.5115 9.68861 22.909 9.68868L3.72473 9.6897L11.3168 2.09755C11.7428 1.67152 11.7428 0.980828 11.3168 0.554791C11.1039 0.341773 10.8247 0.235226 10.5455 0.235226C10.2663 0.235226 9.98706 0.341773 9.77411 0.554791L0.319566 10.0094C0.114984 10.214 9.47202e-07 10.4914 9.2191e-07 10.7808C8.96617e-07 11.0701 0.114911 11.3476 0.319566 11.5522Z" fill="#F8F9FD"/>
</svg>
