<svg width="24" height="22" viewBox="0 0 24 22" fill="none" xmlns="http://www.w3.org/2000/svg">
<path d="M23.6804 10.0103L14.2259 0.555855C13.7999 0.129819 13.1092 0.129819 12.6831 0.555855C12.2571 0.981892 12.2571 1.67258 12.6831 2.09862L20.2755 9.69106L1.09076 9.69207C0.488364 9.69207 0 10.1805 0 10.783C0 11.3855 0.488509 11.8739 1.09098 11.8738L20.2753 11.8728L12.6832 19.4649C12.2572 19.891 12.2572 20.5817 12.6832 21.0077C12.8961 21.2207 13.1753 21.3273 13.4545 21.3273C13.7337 21.3273 14.0129 21.2207 14.2259 21.0077L23.6804 11.5531C23.885 11.3485 24 11.0711 24 10.7817C24 10.4924 23.8851 10.2149 23.6804 10.0103Z" fill="#F8F9FD"/>
</svg>
